P3
# Metadata: Generated by PPM Editor
# Metadata: (4, 22) direction 1 0 0
# Metadata: (26, 3) direction -1 0 0
# Metadata: (27, 13) direction -1 0 0
# Metadata: (20, 8) direction -1 0 0
# Metadata: (16, 13) direction 1 0 0
32 26
255
185 7 70 185 7 70 185 7 70 185 7 70 185 7 70 185 7 70 185 7 70 185 7 70 185 7 70 255 255 255 255 255 255 255 255 255 255 255 255 185 7 70 185 7 70 185 7 70 185 7 70 185 7 70 185 7 70 255 255 255 255 255 255 255 255 255 255 255 255 185 7 70 185 7 70 185 7 70 185 7 70 185 7 70 185 7 70 185 7 70 185 7 70 185 7 70 185 7 70 185 7 70 255 255 255 255 255 255 255 255 255 255 255 255 255 255 255 255 255 255 255 255 255 255 255 255 255 255 255 255 255 255 255 255 255 255 255 255 255 255 255 255 255 255 255 255 255 255 255 255 255 255 255 255 255 255 255 255 255 255 255 255 255 255 255 255 255 255 255 255 255 255 255 255 255 255 255 255 255 255 255 255 255 255 255 255 185 7 70 185 7 70 185 7 70 185 7 70 255 255 255 255 255 255 255 255 255 255 255 255 255 255 255 255 255 255 255 255 255 255 255 255 255 255 255 255 255 255 255 255 255 255 255 255 255 255 255 255 255 255 255 255 255 255 255 255 255 255 255 255 255 255 255 255 255 255 255 255 255 255 255 255 255 255 255 255 255 255 255 255 255 255 255 255 255 255 255 255 255 255 255 255 185 7 70 185 7 70 185 7 70 185 7 70 255 255 255 255 255 255 255 255 255 255 255 255 255 255 255 255 255 255 255 255 255 255 255 255 255 255 255 255 255 255 255 255 255 255 255 255 255 255 255 255 255 255 255 255 255 255 255 255 255 255 255 255 255 255 255 255 255 255 255 255 255 255 255 255 255 255 255 255 255 255 255 255 0 128 255 255 255 255 255 255 255 255 255 255 185 7 70 185 7 70 185 7 70 185 7 70 255 255 255 255 255 255 255 255 255 255 255 255 255 255 255 255 255 255 255 255 255 255 255 255 255 255 255 255 255 255 255 255 255 255 255 255 255 255 255 255 255 255 255 255 255 255 255 255 255 255 255 255 255 255 255 255 255 255 255 255 255 255 255 255 255 255 255 255 255 255 255 255 255 255 255 255 255 255 255 255 255 255 255 255 185 7 70 185 7 70 185 7 70 185 7 70 255 255 255 255 255 255 255 255 255 255 255 255 255 255 255 105 15 150 105 15 150 105 15 150 105 15 150 105 15 150 105 15 150 105 15 150 105 15 150 105 15 150 105 15 150 105 15 150 105 15 150 105 15 150 105 15 150 105 15 150 105 15 150 105 15 150 105 15 150 105 15 150 105 15 150 105 15 150 105 15 150 105 15 150 185 7 70 185 7 70 185 7 70 185 7 70 255 255 255 255 255 255 255 255 255 255 255 255 255 255 255 255 255 255 255 255 255 255 255 255 255 255 255 255 255 255 255 255 255 255 255 255 255 255 255 255 255 255 255 255 255 255 255 255 255 255 255 255 255 255 255 255 255 255 255 255 255 255 255 255 255 255 255 255 255 255 255 255 255 255 255 255 255 255 255 255 255 255 255 255 185 7 70 185 7 70 185 7 70 185 7 70 255 255 255 255 255 255 255 255 255 255 255 255 255 255 255 255 255 255 255 255 255 255 255 255 255 255 255 255 255 255 255 255 255 255 255 255 255 255 255 255 255 255 255 255 255 255 255 255 255 255 255 255 255 255 255 255 255 255 255 255 255 255 255 255 255 255 255 255 255 255 255 255 255 255 255 255 255 255 255 255 255 255 255 255 185 7 70 185 7 70 185 7 70 185 7 70 255 255 255 255 255 255 255 255 255 255 255 255 255 255 255 255 255 255 255 255 255 255 255 255 255 255 255 255 255 255 255 255 255 255 255 255 255 255 255 255 255 255 255 255 255 255 255 255 255 255 255 255 255 255 192 192 192 255 255 255 255 255 255 255 255 255 255 255 255 255 255 255 255 255 255 255 255 255 255 255 255 255 255 255 185 7 70 185 7 70 185 7 70 185 7 70 255 255 255 255 255 255 255 255 255 255 255 255 255 255 255 255 255 255 255 255 255 255 255 255 255 255 255 255 255 255 255 255 255 255 255 255 255 255 255 255 255 255 255 255 255 255 255 255 255 255 255 255 255 255 255 255 255 255 255 255 255 255 255 255 255 255 255 255 255 255 255 255 255 255 255 255 255 255 255 255 255 255 255 255 185 7 70 185 7 70 185 7 70 185 7 70 105 15 150 105 15 150 105 15 150 105 15 150 105 15 150 105 15 150 105 15 150 105 15 150 105 15 150 105 15 150 105 15 150 105 15 150 105 15 150 105 15 150 105 15 150 105 15 150 105 15 150 105 15 150 105 15 150 105 15 150 105 15 150 105 15 150 105 15 150 255 255 255 255 255 255 255 255 255 255 255 255 255 255 255 185 7 70 185 7 70 185 7 70 185 7 70 255 255 255 255 255 255 255 255 255 255 255 255 255 255 255 255 255 255 255 255 255 255 255 255 255 255 255 255 255 255 255 255 255 255 255 255 255 255 255 255 255 255 255 255 255 255 255 255 255 255 255 255 255 255 255 255 255 255 255 255 255 255 255 255 255 255 255 255 255 255 255 255 255 255 255 255 255 255 255 255 255 255 255 255 185 7 70 185 7 70 185 7 70 185 7 70 255 255 255 255 255 255 255 255 255 255 255 255 255 255 255 255 255 255 255 255 255 255 255 255 255 255 255 255 255 255 255 255 255 255 255 255 255 255 255 255 255 255 255 255 255 255 255 255 255 255 255 255 255 255 255 255 255 255 255 255 255 255 255 255 255 255 255 255 255 255 255 255 255 255 255 255 255 255 255 255 255 255 255 255 185 7 70 185 7 70 185 7 70 185 7 70 255 255 255 255 255 255 255 255 255 255 255 255 255 255 255 255 255 255 255 255 255 255 255 255 255 255 255 255 255 255 255 255 255 255 255 255 255 255 255 255 255 255 192 192 192 255 255 255 255 255 255 255 255 255 255 255 255 255 255 255 255 255 255 255 255 255 255 255 255 255 255 255 255 255 255 0 128 255 255 255 255 255 255 255 185 7 70 185 7 70 185 7 70 185 7 70 255 255 255 255 255 255 255 255 255 255 255 255 255 255 255 255 255 255 255 255 255 255 255 255 255 255 255 255 255 255 255 255 255 255 255 255 255 255 255 255 255 255 255 255 255 255 255 255 255 255 255 255 255 255 255 255 255 255 255 255 255 255 255 255 255 255 255 255 255 255 255 255 255 255 255 255 255 255 255 255 255 255 255 255 185 7 70 185 7 70 185 7 70 185 7 70 255 255 255 255 255 255 255 255 255 255 255 255 255 255 255 105 15 150 105 15 150 105 15 150 105 15 150 105 15 150 105 15 150 105 15 150 105 15 150 105 15 150 105 15 150 105 15 150 105 15 150 105 15 150 105 15 150 105 15 150 105 15 150 105 15 150 105 15 150 105 15 150 105 15 150 105 15 150 105 15 150 105 15 150 185 7 70 185 7 70 185 7 70 185 7 70 255 255 255 255 255 255 255 255 255 255 255 255 255 255 255 255 255 255 255 255 255 255 255 255 255 255 255 255 255 255 255 255 255 255 255 255 255 255 255 255 255 255 255 255 255 255 255 255 255 255 255 255 255 255 255 255 255 255 255 255 255 255 255 255 255 255 255 255 255 255 255 255 255 255 255 255 255 255 255 255 255 255 255 255 185 7 70 185 7 70 185 7 70 185 7 70 255 255 255 255 255 255 255 255 255 255 255 255 255 255 255 255 255 255 255 255 255 255 255 255 255 255 255 255 255 255 255 255 255 255 255 255 255 255 255 255 255 255 255 255 255 255 255 255 255 255 255 255 255 255 255 255 255 255 255 255 255 255 255 255 255 255 255 255 255 255 255 255 255 255 255 255 255 255 255 255 255 255 255 255 185 7 70 185 7 70 185 7 70 185 7 70 255 255 255 255 255 255 255 255 255 255 255 255 255 255 255 255 255 255 255 255 255 255 255 255 255 255 255 255 255 255 255 255 255 255 255 255 255 255 255 255 255 255 255 255 255 255 255 255 255 255 255 255 255 255 255 255 255 255 255 255 255 255 255 255 255 255 255 255 255 255 255 255 255 255 255 255 255 255 255 255 255 255 255 255 185 7 70 185 7 70 185 7 70 185 7 70 255 255 255 255 255 255 255 255 255 255 255 255 255 255 255 255 255 255 255 255 255 255 255 255 255 255 255 255 255 255 255 255 255 255 255 255 255 255 255 255 255 255 255 255 255 255 255 255 255 255 255 255 255 255 255 255 255 255 255 255 255 255 255 255 255 255 255 255 255 255 255 255 255 255 255 255 255 255 255 255 255 255 255 255 185 7 70 185 7 70 185 7 70 185 7 70 255 255 255 255 255 255 105 15 150 105 15 150 105 15 150 105 15 150 105 15 150 105 15 150 105 15 150 105 15 150 105 15 150 105 15 150 105 15 150 255 255 255 255 255 255 105 15 150 105 15 150 105 15 150 105 15 150 105 15 150 105 15 150 105 15 150 105 15 150 105 15 150 105 15 150 105 15 150 255 255 255 255 255 255 185 7 70 185 7 70 185 7 70 185 7 70 255 255 255 255 255 255 255 255 255 255 255 255 255 255 255 255 255 255 255 255 255 255 255 255 255 255 255 255 255 255 255 255 255 255 255 255 255 255 255 255 255 255 255 255 255 255 255 255 255 255 255 255 255 255 255 255 255 255 255 255 255 255 255 255 255 255 255 255 255 255 255 255 255 255 255 255 255 255 255 255 255 255 255 255 185 7 70 185 7 70 185 7 70 185 7 70 255 255 255 255 255 255 0 255 0 255 255 255 255 255 255 255 255 255 255 255 255 255 255 255 255 255 255 255 255 255 255 255 255 255 255 255 255 255 255 255 255 255 255 255 255 255 255 255 255 255 255 255 255 255 255 255 255 255 255 255 255 255 255 255 255 255 255 255 255 255 255 255 255 255 255 255 255 255 255 255 255 255 255 255 185 7 70 185 7 70 185 7 70 185 7 70 255 255 255 255 255 255 255 255 255 255 255 255 255 255 255 255 255 255 255 255 255 255 255 255 255 255 255 255 255 255 255 255 255 255 255 255 255 255 255 255 255 255 255 255 255 255 255 255 255 255 255 255 255 255 255 255 255 255 255 255 255 255 255 255 255 255 255 255 255 255 255 255 255 255 255 255 255 255 255 255 255 255 255 255 185 7 70 185 7 70 185 7 70 185 7 70 255 255 255 255 255 255 255 255 255 255 255 255 255 255 255 255 255 255 255 255 255 255 255 255 255 255 255 255 255 255 255 255 255 255 255 255 255 255 255 255 255 255 255 255 255 255 255 255 255 255 255 255 255 255 255 255 255 255 255 255 255 255 255 255 255 255 255 255 255 255 255 255 255 255 255 255 255 255 255 255 255 255 255 255 185 7 70 185 7 70 185 7 70 185 7 70 185 7 70 185 7 70 185 7 70 185 7 70 185 7 70 185 7 70 185 7 70 255 255 255 255 255 255 255 255 255 255 255 255 185 7 70 185 7 70 185 7 70 185 7 70 185 7 70 185 7 70 255 255 255 255 255 255 255 255 255 255 255 255 185 7 70 185 7 70 185 7 70 185 7 70 185 7 70 185 7 70 185 7 70 185 7 70 185 7 70 